<svg xmlns="http://www.w3.org/2000/svg" viewBox="0 0 32 32" fill="none">
  <defs>
    <linearGradient id="VERDEVIA-grad" x1="0" y1="0" x2="32" y2="32" gradientUnits="userSpaceOnUse">
      <stop offset="0%" stop-color="#10B981" />
      <stop offset="100%" stop-color="#3B82F6" />
    </linearGradient>
    <filter id="glow" x="-20%" y="-20%" width="140%" height="140%">
      <feGaussianBlur stdDeviation="1.5" result="blur" />
      <feMerge>
        <feMergeNode in="blur" />
        <feMergeNode in="SourceGraphic" />
      </feMerge>
    </filter>
  </defs>
  <!-- Background circle with a glass-like feel -->
  <circle cx="16" cy="16" r="15" fill="#0F172A" stroke="url(#VERDEVIA-grad)" stroke-width="1.5" />
  <!-- stylized glowing leaf & pulse path -->
  <path d="M16 6C16 6 8 12 8 18C8 22.4183 11.5817 26 16 26C20.4183 26 24 22.4183 24 18C24 12 16 6 16 6Z" fill="url(#VERDEVIA-grad)" fill-opacity="0.15" />
  <!-- The main active leaf path -->
  <path d="M16 6C16 6 10 12 10 17C10 20.3137 12.6863 23 16 23C19.3137 23 22 20.3137 22 17C22 12 16 6 16 6Z" stroke="url(#VERDEVIA-grad)" stroke-width="2" stroke-linecap="round" stroke-linejoin="round" filter="url(#glow)" />
  <!-- Center pulse line/vein -->
  <path d="M16 7V22" stroke="#10B981" stroke-width="1.5" stroke-linecap="round" />
  <path d="M13 14H14.5L16 11L17.5 17L19 14H20.5" stroke="#FFFFFF" stroke-width="1.5" stroke-linecap="round" stroke-linejoin="round" />
</svg>
